<svg width="58" height="73" viewBox="0 0 58 73" fill="none" xmlns="http://www.w3.org/2000/svg">
<path d="M57.9995 17.0272C55.6801 16.0317 53.3641 15.0362 51.0446 14.0407C48.6011 27.3314 46.1576 40.622 43.7175 53.9127C43.2074 39.2912 42.6939 24.6733 42.1838 10.0518L34.8223 6.90631L38.6409 59.8269L47.3673 63.6568L58.003 17.0272H57.9995Z" fill="#6254A0"/>
<path d="M29.4053 57.2759C28.8918 58.1815 28.3748 59.0837 27.8613 59.9893C37.1701 64.113 46.479 68.2402 55.7878 72.364C56.2737 71.4341 56.7597 70.5043 57.2456 69.5745C47.9644 65.4749 38.6866 61.3754 29.4053 57.2759Z" fill="#2C2F85"/>
<path d="M29.4321 57.2759C29.9456 58.1815 30.4626 59.0837 30.9761 59.9893C21.6673 64.113 12.3585 68.2402 3.04964 72.364C2.56369 71.4341 2.07774 70.5043 1.5918 69.5745C10.873 65.4749 20.1508 61.3754 29.4321 57.2759Z" fill="#2C2F85"/>
<path d="M29.4316 73L42.5522 66.4982L39.4814 65.1397C36.1384 66.5085 32.7954 67.8773 29.4523 69.2462" fill="#2C2F85"/>
<path d="M29.4333 73C25.0494 70.8327 20.669 68.6654 16.2852 66.4982L19.3559 65.1397C22.7231 66.5085 26.0903 67.8773 29.454 69.2462" fill="#2C2F85"/>
<path d="M0 17.6632C2.31945 16.6677 4.63545 15.6722 6.9549 14.6767C9.39842 27.9674 11.8419 41.258 14.282 54.5486C14.7921 39.9272 15.3056 25.3092 15.8157 10.6878L23.1773 7.5423L19.3586 60.4629L10.6322 64.2928L0 17.6632Z" fill="#6254A0"/>
<path d="M30.2019 0.0449358L26.3867 0C26.8658 19.7821 27.3448 39.5643 27.8239 59.3499C28.813 59.3499 29.8021 59.3568 30.7947 59.3602C30.5983 39.5885 30.4018 19.8202 30.2054 0.0483924L30.2019 0.0449358Z" fill="#2C2F85"/>
</svg>
