<svg width="30" height="30" viewBox="0 0 30 30" fill="none" xmlns="http://www.w3.org/2000/svg">
<path d="M15 0C6.71563 0 0 6.51993 0 14.5629C0 22.6059 6.71563 29.1258 15 29.1258C23.2844 29.1258 30 22.6059 30 14.5629C30 6.51993 23.2844 0 15 0ZM20.7687 16.4303C20.7687 16.4303 22.0953 17.7015 22.4219 18.2916C22.4312 18.3037 22.4359 18.3159 22.4391 18.322C22.5719 18.5389 22.6031 18.7073 22.5375 18.8332C22.4281 19.0425 22.0531 19.1457 21.925 19.1548H19.5812C19.4187 19.1548 19.0781 19.1138 18.6656 18.8377C18.3484 18.6223 18.0359 18.2689 17.7312 17.9245C17.2766 17.4118 16.8828 16.9688 16.4859 16.9688C16.4355 16.9687 16.3854 16.9764 16.3375 16.9916C16.0375 17.0856 15.6531 17.5013 15.6531 18.6087C15.6531 18.9545 15.3719 19.1533 15.1734 19.1533H14.1C13.7344 19.1533 11.8297 19.0289 10.1422 17.301C8.07656 15.1849 6.21719 10.9404 6.20156 10.9009C6.08437 10.6264 6.32656 10.4792 6.59062 10.4792H8.95781C9.27344 10.4792 9.37656 10.6658 9.44844 10.8312C9.53281 11.0238 9.84219 11.7899 10.35 12.6515C11.1734 14.0562 11.6781 14.6266 12.0828 14.6266C12.1587 14.6257 12.2332 14.607 12.3 14.572C12.8281 14.2868 12.7297 12.4589 12.7062 12.0796C12.7062 12.0083 12.7047 11.262 12.4344 10.904C12.2406 10.6446 11.9109 10.546 11.7109 10.5096C11.7919 10.4011 11.8985 10.3132 12.0219 10.2532C12.3844 10.0772 13.0375 10.0514 13.6859 10.0514H14.0469C14.75 10.0605 14.9313 10.1045 15.1859 10.1667C15.7016 10.2866 15.7125 10.6097 15.6672 11.7156C15.6531 12.0296 15.6391 12.3845 15.6391 12.8032C15.6391 12.8942 15.6344 12.9913 15.6344 13.0945C15.6187 13.6573 15.6 14.2959 16.0094 14.5584C16.0628 14.5909 16.1245 14.6082 16.1875 14.6084C16.3297 14.6084 16.7578 14.6084 17.9172 12.6773C18.2747 12.0557 18.5855 11.4098 18.8469 10.7447C18.8703 10.7053 18.9391 10.5839 19.0203 10.5369C19.0803 10.5072 19.1468 10.4921 19.2141 10.4929H21.9969C22.3 10.4929 22.5078 10.5369 22.5469 10.6506C22.6156 10.8312 22.5344 11.3818 21.2641 13.052L20.6969 13.7786C19.5453 15.244 19.5453 15.3184 20.7687 16.4303Z" fill="white"/>
</svg>
