<svg width="30" height="30" viewBox="0 0 30 30" fill="none" xmlns="http://www.w3.org/2000/svg">
<path d="M15 0C6.72 0 0 6.52418 0 14.5629C0 22.6016 6.72 29.1258 15 29.1258C23.28 29.1258 30 22.6016 30 14.5629C30 6.52418 23.28 0 15 0ZM21.96 9.90278C21.735 12.2037 20.76 17.7959 20.265 20.3735C20.055 21.4657 19.635 21.8298 19.245 21.8735C18.375 21.9463 17.715 21.3201 16.875 20.7813C15.555 19.9366 14.805 19.4124 13.53 18.5968C12.045 17.6502 13.005 17.126 13.86 16.2813C14.085 16.0629 17.925 12.6697 18 12.3639C18.0104 12.3176 18.009 12.2695 17.996 12.2238C17.9829 12.1781 17.9585 12.1362 17.925 12.1018C17.835 12.029 17.715 12.0581 17.61 12.0726C17.475 12.1018 15.375 13.4561 11.28 16.1357C10.68 16.5289 10.14 16.7328 9.66 16.7182C9.12 16.7037 8.1 16.427 7.335 16.1794C6.39 15.8881 5.655 15.7279 5.715 15.2182C5.745 14.9561 6.12 14.694 6.825 14.4173C11.205 12.5678 14.115 11.3445 15.57 10.762C19.74 9.07269 20.595 8.78143 21.165 8.78143C21.285 8.78143 21.57 8.81056 21.75 8.95619C21.9 9.07269 21.945 9.23288 21.96 9.34939C21.945 9.43676 21.975 9.6989 21.96 9.90278Z" fill="white"/>
</svg>
